HIERARCHY
ROOT Hips
{
	OFFSET 0.000000 0.000000 0.000000 
	CHANNELS 6 Xposition Yposition Zposition Yrotation Zrotation Xrotation 
	JOINT Lumbar
	{
		OFFSET 0.000000 0.000000 0.000000 
		CHANNELS 3 Zrotation Xrotation Yrotation
		JOINT Neck
		{
			OFFSET 0.000000 0.445665 0.000000 
			CHANNELS 3 Zrotation Xrotation Yrotation
			End Site
			{
				OFFSET 0.000000 0.227535 0.000000 
			}
		}
		JOINT RightShoulder
		{
			OFFSET 0.019635 0.377685 0.194865 
			CHANNELS 3 Zrotation Xrotation Yrotation
			JOINT RightElbow
			{
				OFFSET 0.000000 -0.243375 0.000000 
				CHANNELS 2 Zrotation Yrotation
				JOINT RightWrist
				{
					OFFSET 0.000000 -0.264825 0.000000 
					CHANNELS 2 Zrotation Xrotation
					End Site
					{
						OFFSET 0.006600 -0.176220 0.000990 
					}
				}
			}
		}
		JOINT LeftShoulder
		{
			OFFSET 0.019635 0.377685 -0.194865 
			CHANNELS 3 Zrotation Xrotation Yrotation
			JOINT LeftElbow
			{
				OFFSET 0.000000 -0.243375 0.000000 
				CHANNELS 2 Zrotation Yrotation
				JOINT LeftWrist
				{
					OFFSET 0.000000 -0.264825 0.000000 
					CHANNELS 2 Zrotation Xrotation
					End Site
					{
						OFFSET 0.006600 -0.176220 -0.000990 
					}
				}
			}
		}
	}
	JOINT RightHip
	{
		OFFSET 0.052140 -0.069960 0.075570 
		CHANNELS 3 Zrotation Xrotation Yrotation
		JOINT RightKnee
		{
			OFFSET 0.000000 -0.402270 0.000000 
			CHANNELS 1 Zrotation
			JOINT RightAnkle
			{
				OFFSET 0.000000 -0.404085 0.000000 
				CHANNELS 3 Zrotation Xrotation Yrotation
				End Site
				{
					OFFSET 0.204105 -0.089430 0.008415 
				}
			}
		}
	}
	JOINT LeftHip
	{
		OFFSET 0.052140 -0.069960 -0.075570 
		CHANNELS 3 Zrotation Xrotation Yrotation
		JOINT LeftKnee
		{
			OFFSET 0.000000 -0.402270 0.000000 
			CHANNELS 1 Zrotation
			JOINT LeftAnkle
			{
				OFFSET 0.000000 -0.404085 0.000000 
				CHANNELS 3 Zrotation Xrotation Yrotation
				End Site
				{
					OFFSET 0.204105 -0.089430 -0.008415 
				}
			}
		}
	}
}
MOTION
Frames: 32
Frame Time: 0.02
-0 0.95578 0 179.91797 0 3.01878 6.98349 -1.32377 -1.91627 -33.06043 4.75484 4.10677 25.57321 -16.3002 7.00792 11.19274 81.47117 0.12602 1.52109 27.69611 1.65582 -5.80603 7.99064 -74.88345 -3.91003 -1.27365 0.30894 2.15954 11.8523 -19.35191 10.67724 -9.62092 -14.63003 -1.66366 -3.27735 -5.34145 -13.20634 7.70319 7.51023 11.28983
0.00022 0.9558 -0.00032 179.89295 0 3.02631 7.00237 -1.31493 -1.80519 -33.60727 4.78665 3.95445 26.18151 -16.24416 7.11925 11.22675 81.56773 0.11629 1.52849 28.25203 1.74728 -6.09675 8.03666 -75.01793 -3.9775 -1.21839 0.34841 2.17342 11.86491 -19.40261 10.67594 -9.63209 -14.62112 -1.64111 -3.26648 -5.30756 -13.23173 7.69931 7.50892 11.27553
0.00044 0.95581 -0.00065 179.8679 0 3.03376 7.02078 -1.306 -1.69518 -34.14998 4.81788 3.80331 26.78538 -16.18834 7.23009 11.26039 81.66353 0.1067 1.53567 28.80389 1.83841 -6.38641 8.0824 -75.15137 -4.04455 -1.16356 0.38782 2.18734 11.8776 -19.45301 10.67458 -9.6431 -14.61229 -1.61841 -3.2556 -5.27386 -13.25729 7.69549 7.50765 11.26145
0.00067 0.95582 -0.00097 179.84276 0 3.04091 7.03789 -1.29665 -1.58847 -34.68318 4.84718 3.65533 27.37891 -16.13294 7.34001 11.29304 81.75711 0.09755 1.54175 29.34637 1.92905 -6.67484 8.12756 -75.28167 -4.11058 -1.10971 0.42718 2.2015 11.89059 -19.50263 10.67297 -9.65351 -14.60379 -1.59497 -3.24465 -5.24113 -13.2839 7.69193 7.50665 11.2483
0.00087 0.95583 -0.0013 179.81842 0 3.04959 7.06236 -1.28952 -1.46439 -35.26874 4.8868 3.49052 28.02896 -16.07543 7.45475 11.33116 81.8623 0.08607 1.55329 29.94025 2.02223 -6.96999 8.17593 -75.42823 -4.18204 -1.05045 0.46658 2.21433 11.90181 -19.55629 10.67273 -9.66702 -14.59368 -1.57551 -3.23417 -5.20389 -13.30512 7.68704 7.50434 11.23043
0.00113 0.95584 -0.00161 179.79219 0 3.05507 7.07095 -1.27768 -1.37713 -35.74165 4.90447 3.36151 28.5576 -16.02234 7.55922 11.35753 81.94292 0.07951 1.55351 30.42365 2.10998 -7.25052 8.21737 -75.54053 -4.24193 -1.00281 0.50602 2.22998 11.91687 -19.60141 10.66954 -9.67404 -14.58687 -1.54762 -3.22266 -5.17583 -13.3376 7.68493 7.50472 11.22241
0.00156 0.95585 -0.00191 179.76165 0 3.05128 7.03658 -1.2523 -1.39317 -35.91623 4.86059 3.33121 28.76351 -15.98138 7.63672 11.35221 81.95476 0.0869 1.51929 30.61401 2.18429 -7.49786 8.24098 -75.55527 -4.27037 -0.98604 0.54526 2.25419 11.94255 -19.62297 10.65823 -9.66169 -14.59045 -1.49518 -3.20815 -5.17661 -13.40411 7.69114 7.51356 11.24371
0.00206 0.95585 -0.00219 179.72904 0 3.04433 6.98601 -1.22223 -1.44612 -35.9749 4.79465 3.337 28.84476 -15.94482 7.70367 11.33492 81.94197 0.0992 1.47413 30.69081 2.25294 -7.72939 8.25742 -75.53587 -4.28709 -0.98118 0.58462 2.28115 11.97214 -19.63595 10.64393 -9.64298 -14.59718 -1.43439 -3.19259 -5.18606 -13.48151 7.70005 7.52495 11.27459
0.00254 0.95585 -0.00248 179.69667 0 3.03909 6.9422 -1.19462 -1.48115 -36.07849 4.73937 3.32642 28.97508 -15.90632 7.77464 11.32255 81.94108 0.10905 1.43603 30.81195 2.32315 -7.96376 8.27629 -75.53416 -4.30885 -0.97166 0.62419 2.30638 11.99995 -19.65287 10.63094 -9.62813 -14.60155 -1.37818 -3.17759 -5.18918 -13.55206 7.70731 7.53451 11.29975
0.00299 0.95586 -0.00277 179.66708 0 3.03271 6.90084 -1.16561 -1.521 -36.21483 4.68149 3.31592 29.13735 -15.86777 7.84888 11.31222 81.93726 0.11985 1.3893 30.96376 2.39738 -8.21637 8.29854 -75.52371 -4.33172 -0.95905 0.6627 2.3336 12.02769 -19.6696 10.61812 -9.60938 -14.60959 -1.31869 -3.16225 -5.20218 -13.6306 7.71635 7.54687 11.3307
0.0035 0.95586 -0.00305 179.63144 0 3.02795 6.85064 -1.13844 -1.55963 -36.25537 4.62369 3.31359 29.20346 -15.83014 7.91376 11.29497 81.93364 0.12978 1.35776 31.02465 2.4622 -8.42731 8.31218 -75.52281 -4.34959 -0.95561 0.70341 2.35737 12.0566 -19.68472 10.60426 -9.59701 -14.61104 -1.264 -3.14738 -5.19691 -13.69515 7.72231 7.55405 11.35182
0.00411 0.95587 -0.0033 179.57753 0 3.02844 6.77903 -1.11724 -1.58529 -36.05972 4.57213 3.32697 29.0342 -15.79569 7.95589 11.26 81.93695 0.13648 1.37231 30.86256 2.50008 -8.52679 8.3029 -75.56142 -4.35568 -0.97524 0.75065 2.37063 12.0869 -19.69738 10.58812 -9.6059 -14.59101 -1.22497 -3.13401 -5.13682 -13.71775 7.71919 7.54581 11.34355
0.00477 0.95588 -0.00355 179.51802 0 3.0307 6.69926 -1.09813 -1.60853 -35.77137 4.52127 3.34694 28.77224 -15.76166 7.98891 11.21877 81.94123 0.14205 1.40224 30.61253 2.52919 -8.58516 8.28545 -75.61 -4.35729 -1.00353 0.80004 2.38039 12.11836 -19.7088 10.57106 -9.62109 -14.56469 -1.19101 -3.12114 -5.05837 -13.72596 7.71285 7.53232 11.32489
0.0054 0.95589 -0.0038 179.4624 0 3.03214 6.62388 -1.07823 -1.63326 -35.52585 4.46967 3.36263 28.55335 -15.72634 8.0257 11.18142 81.94481 0.14787 1.42421 30.40295 2.5638 -8.66221 8.27228 -75.6508 -4.36147 -1.02746 0.8481 2.39197 12.14993 -19.72076 10.55449 -9.63201 -14.54289 -1.15446 -3.10809 -4.98991 -13.74131 7.70792 7.52164 11.3111
0.00605 0.95591 -0.00405 179.40094 0 3.03346 6.54509 -1.05744 -1.65769 -35.27454 4.41911 3.3851 28.32739 -15.69594 8.06348 11.13925 81.94861 0.15499 1.45 30.1886 2.59158 -8.73771 8.25621 -75.70387 -4.36295 -1.05373 0.89756 2.40268 12.17914 -19.73224 10.53744 -9.64849 -14.51423 -1.1187 -3.09485 -4.9152 -13.75481 7.70329 7.50945 11.29763
0.00667 0.95592 -0.00429 179.35046 0 3.03558 6.47161 -1.03912 -1.68162 -35.01324 4.36678 3.39443 28.09415 -15.65521 8.09741 11.10583 81.9525 0.15907 1.4715 29.9632 2.63187 -8.80814 8.24462 -75.73453 -4.36919 -1.07687 0.94476 2.41431 12.21324 -19.74487 10.52128 -9.65516 -14.49827 -1.08276 -3.08207 -4.84852 -13.76824 7.69727 7.49889 11.28012
0.00722 0.95594 -0.00451 179.33092 0 3.03892 6.41554 -1.0266 -1.70517 -34.76057 4.31024 3.36676 27.87755 -15.58697 8.12102 11.09803 81.95669 0.15493 1.47851 29.74281 2.70622 -8.8641 8.24501 -75.69832 -4.38949 -1.09067 0.98387 2.42974 12.26257 -19.75834 10.50751 -9.63177 -14.51959 -1.04369 -3.07105 -4.81324 -13.78813 7.68791 7.49622 11.2606
0.00775 0.95596 -0.00472 179.3229 0 3.04316 6.36508 -1.01667 -1.728 -34.49897 4.25198 3.32538 27.65458 -15.50827 8.14147 11.09936 81.961 0.14777 1.48055 29.5122 2.79386 -8.9184 8.25066 -75.64006 -4.41483 -1.10068 1.02087 2.44614 12.31629 -19.77356 10.49478 -9.59862 -14.5538 -1.00453 -3.06036 -4.78588 -13.80782 7.67729 7.49497 11.23612
0.00828 0.95598 -0.00493 179.30999 0 3.04737 6.31158 -1.00582 -1.75077 -34.23331 4.19386 3.2894 27.42621 -15.43337 8.16469 11.09656 81.96519 0.14203 1.48416 29.27776 2.8773 -8.98051 8.25551 -75.59346 -4.43805 -1.11147 1.05971 2.4618 12.36678 -19.78973 10.48178 -9.57091 -14.58164 -0.96635 -3.04912 -4.75155 -13.8255 7.66744 7.49171 11.20952
0.00882 0.95599 -0.00514 179.29496 0 3.05001 6.25968 -0.9937 -1.77531 -33.99912 4.13785 3.25685 27.23049 -15.36175 8.18201 11.0933 81.96967 0.13602 1.49107 29.07632 2.95315 -9.01152 8.2534 -75.53941 -4.46039 -1.12668 1.09495 2.47859 12.42292 -19.79845 10.46779 -9.53911 -14.61136 -0.92444 -3.03961 -4.73023 -13.85152 7.65671 7.49408 11.20098
0.00935 0.95601 -0.00536 179.28776 0 3.05617 6.20612 -0.98514 -1.79575 -33.69787 4.07782 3.21426 26.96528 -15.28178 8.2109 11.09346 81.97358 0.12992 1.4899 28.80443 3.04745 -9.10728 8.26707 -75.49658 -4.48581 -1.13153 1.13711 2.49334 12.46781 -19.82315 10.45624 -9.5135 -14.64042 -0.89015 -3.02653 -4.68466 -13.86036 7.64749 7.48505 11.15386
0.00985 0.95605 -0.0056 179.29423 0 3.07119 6.1449 -0.98298 -1.80733 -33.22045 3.99996 3.14326 26.52165 -15.1727 8.27304 11.09897 81.97593 0.12396 1.4663 28.34575 3.1952 -9.38368 8.32394 -75.48076 -4.51843 -1.10985 1.19939 2.50168 12.4847 -19.89127 10.45015 -9.50696 -14.66338 -0.87749 -3.00388 -4.5641 -13.82176 7.6434 7.44486 11.00075
0.01035 0.95609 -0.00586 179.30925 0 3.08984 6.0823 -0.9848 -1.8144 -32.67575 3.91923 3.06329 26.00729 -15.05693 8.34661 11.1079 81.97772 0.11812 1.43495 27.8166 3.36024 -9.72494 8.39639 -75.47843 -4.55395 -1.07766 1.26858 2.50807 12.48923 -19.9755 10.44672 -9.50709 -14.68544 -0.87232 -2.97756 -4.42014 -13.76612 7.64084 7.39308 10.8092
0.01085 0.95612 -0.00612 179.32366 0 3.10721 6.02135 -0.98668 -1.82206 -32.15697 3.84479 2.99017 25.51712 -14.95023 8.41501 11.11664 81.97975 0.11243 1.40794 27.31597 3.51339 -10.03614 8.46116 -75.47642 -4.58828 -1.04945 1.33431 2.5157 12.49686 -20.0525 10.44265 -9.50436 -14.70871 -0.86338 -2.9527 -4.29096 -13.71819 7.6371 7.34614 10.63568
0.01135 0.95616 -0.00634 179.32435 0 3.123 5.95581 -0.98087 -1.83583 -31.65459 3.75016 2.9052 25.05733 -14.81878 8.48436 11.12031 81.98182 0.10563 1.37719 26.82728 3.68319 -10.35096 8.52864 -75.44761 -4.62247 -1.02433 1.40146 2.52179 12.51576 -20.12906 10.43595 -9.50039 -14.72919 -0.85617 -2.92879 -4.1444 -13.66975 7.63509 7.30088 10.45947
0.01183 0.95619 -0.00666 179.35584 0 3.14298 5.90002 -0.99183 -1.83585 -31.10581 3.69576 2.84253 24.52122 -14.73607 8.55302 11.13476 81.98369 0.10139 1.35262 26.30018 3.82328 -10.67215 8.59412 -75.4766 -4.65726 -0.99049 1.46713 2.5307 12.50759 -20.21047 10.43567 -9.50092 -14.75493 -0.84691 -2.90198 -4.02858 -13.61915 7.63019 7.24954 10.27999
0.01227 0.95621 -0.00726 179.46753 0 3.17321 5.86709 -1.04971 -1.79884 -30.41767 3.76307 2.84779 23.76341 -14.80159 8.63027 11.18217 81.98492 0.10258 1.34552 25.66105 3.86807 -11.00824 8.65001 -75.67513 -4.69559 -0.93368 1.52848 2.54728 12.43257 -20.30009 10.44989 -9.51049 -14.7968 -0.83227 -2.86833 -4.00175 -13.55982 7.61398 7.18277 10.09937
0.01267 0.95622 -0.00798 179.61041 0 3.20759 5.84522 -1.12406 -1.74835 -29.69254 3.86901 2.87536 22.93873 -14.91429 8.70446 11.23948 81.98602 0.10664 1.3452 24.99205 3.88396 -11.34606 8.7032 -75.92911 -4.73381 -0.86876 1.58775 2.56691 12.32977 -20.39421 10.47097 -9.52476 -14.84369 -0.81499 -2.83179 -4.00702 -13.5002 7.59539 7.11059 9.91712
0.01307 0.95623 -0.00866 179.74075 0 3.24037 5.82067 -1.18979 -1.70397 -28.99979 3.95091 2.88968 22.16042 -14.99742 8.77077 11.28961 81.98728 0.11044 1.34276 24.34956 3.91896 -11.67447 8.75799 -76.149 -4.77045 -0.80854 1.64716 2.58546 12.2365 -20.4871 10.49062 -9.53806 -14.88731 -0.79743 -2.79645 -3.99851 -13.44528 7.57975 7.04182 9.73661
0.01355 0.95626 -0.00927 179.86442 0 3.27211 5.78457 -1.26031 -1.65887 -28.23004 4.06053 2.91566 21.30314 -15.11421 8.87465 11.35133 81.98799 0.10984 1.336 23.64202 3.92942 -12.04158 8.81248 -76.40645 -4.81442 -0.74365 1.71058 2.60248 12.15594 -20.57725 10.50322 -9.54658 -14.93505 -0.78608 -2.76165 -3.98541 -13.37052 7.55612 6.96849 9.55043
0.01384 0.95624 -0.01005 180.00938 0 3.30691 5.77718 -1.32488 -1.61289 -27.62395 4.12106 2.92424 20.60669 -15.17275 8.90189 11.39105 81.98995 0.11908 1.33995 23.07379 3.9838 -12.32763 8.86582 -76.59919 -4.84264 -0.68669 1.76461 2.62366 12.04235 -20.67378 10.53213 -9.56618 -14.97545 -0.76145 -2.72484 -3.99026 -13.33718 7.54874 6.90368 9.37628
0.01365 0.95609 -0.01121 180.20472 0 3.34946 5.82876 -1.36747 -1.56101 -27.38198 4.04187 2.86628 20.27314 -15.05429 8.69695 11.3692 81.99438 0.15469 1.3715 22.81059 4.16767 -12.391 8.92476 -76.59527 -4.83164 -0.65366 1.79714 2.65372 11.84525 -20.78838 10.60409 -9.61434 -14.99412 -0.69728 -2.68533 -4.03346 -13.4193 7.58536 6.86268 9.23533
